<mxfile host="app.diagrams.net" modified="2023-06-04T19:58:56.888Z" agent="Mozilla/5.0 (X11; Linux x86_64) AppleWebKit/537.36 (KHTML, like Gecko) Chrome/113.0.0.0 Safari/537.36" etag="t12mfiEma90zpL-tLQSt" version="21.3.6" type="github">
  <diagram name="Pagina-1" id="zLtLsO0ySY47t27Yj4bS">
    <mxGraphModel dx="2048" dy="759" grid="1" gridSize="10" guides="1" tooltips="1" connect="1" arrows="1" fold="1" page="1" pageScale="1" pageWidth="827" pageHeight="1169" math="0" shadow="0">
      <root>
        <mxCell id="0" />
        <mxCell id="1" parent="0" />
        <mxCell id="WsTCxCBbNMFjAXj_Hqe6-10" style="edgeStyle=none;rounded=0;orthogonalLoop=1;jettySize=auto;html=1;exitX=0;exitY=1;exitDx=0;exitDy=0;entryX=0.897;entryY=0.083;entryDx=0;entryDy=0;endArrow=baseDash;endFill=0;entryPerimeter=0;" parent="1" source="WsTCxCBbNMFjAXj_Hqe6-1" target="WsTCxCBbNMFjAXj_Hqe6-3" edge="1">
          <mxGeometry relative="1" as="geometry" />
        </mxCell>
        <mxCell id="WsTCxCBbNMFjAXj_Hqe6-11" style="edgeStyle=none;rounded=0;orthogonalLoop=1;jettySize=auto;html=1;exitX=1;exitY=1;exitDx=0;exitDy=0;" parent="1" source="WsTCxCBbNMFjAXj_Hqe6-1" target="WsTCxCBbNMFjAXj_Hqe6-2" edge="1">
          <mxGeometry relative="1" as="geometry" />
        </mxCell>
        <mxCell id="WsTCxCBbNMFjAXj_Hqe6-1" value="a" style="ellipse;whiteSpace=wrap;html=1;aspect=fixed;" parent="1" vertex="1">
          <mxGeometry x="370" y="350" width="40" height="40" as="geometry" />
        </mxCell>
        <mxCell id="WsTCxCBbNMFjAXj_Hqe6-14" style="edgeStyle=none;rounded=0;orthogonalLoop=1;jettySize=auto;html=1;exitX=0.5;exitY=1;exitDx=0;exitDy=0;entryX=0.5;entryY=0;entryDx=0;entryDy=0;" parent="1" source="WsTCxCBbNMFjAXj_Hqe6-2" target="WsTCxCBbNMFjAXj_Hqe6-4" edge="1">
          <mxGeometry relative="1" as="geometry" />
        </mxCell>
        <mxCell id="WsTCxCBbNMFjAXj_Hqe6-15" style="edgeStyle=none;rounded=0;orthogonalLoop=1;jettySize=auto;html=1;exitX=0;exitY=1;exitDx=0;exitDy=0;entryX=0.945;entryY=0.26;entryDx=0;entryDy=0;entryPerimeter=0;" parent="1" source="WsTCxCBbNMFjAXj_Hqe6-2" target="WsTCxCBbNMFjAXj_Hqe6-7" edge="1">
          <mxGeometry relative="1" as="geometry" />
        </mxCell>
        <mxCell id="WsTCxCBbNMFjAXj_Hqe6-2" value="b" style="ellipse;whiteSpace=wrap;html=1;aspect=fixed;" parent="1" vertex="1">
          <mxGeometry x="440" y="430" width="40" height="40" as="geometry" />
        </mxCell>
        <mxCell id="WsTCxCBbNMFjAXj_Hqe6-13" style="edgeStyle=none;rounded=0;orthogonalLoop=1;jettySize=auto;html=1;exitX=0.5;exitY=1;exitDx=0;exitDy=0;entryX=0.5;entryY=0;entryDx=0;entryDy=0;" parent="1" source="WsTCxCBbNMFjAXj_Hqe6-3" target="WsTCxCBbNMFjAXj_Hqe6-7" edge="1">
          <mxGeometry relative="1" as="geometry" />
        </mxCell>
        <mxCell id="WsTCxCBbNMFjAXj_Hqe6-3" value="c" style="ellipse;whiteSpace=wrap;html=1;aspect=fixed;" parent="1" vertex="1">
          <mxGeometry x="290" y="430" width="40" height="40" as="geometry" />
        </mxCell>
        <mxCell id="9P4-RmKASeGlcGMQjBVW-48" style="edgeStyle=orthogonalEdgeStyle;curved=1;rounded=0;orthogonalLoop=1;jettySize=auto;html=1;exitX=0.5;exitY=1;exitDx=0;exitDy=0;entryX=0.5;entryY=1;entryDx=0;entryDy=0;" edge="1" parent="1" source="WsTCxCBbNMFjAXj_Hqe6-4" target="9P4-RmKASeGlcGMQjBVW-43">
          <mxGeometry relative="1" as="geometry">
            <Array as="points">
              <mxPoint x="460" y="710" />
              <mxPoint x="-150" y="710" />
            </Array>
          </mxGeometry>
        </mxCell>
        <mxCell id="WsTCxCBbNMFjAXj_Hqe6-4" value="e" style="ellipse;whiteSpace=wrap;html=1;aspect=fixed;" parent="1" vertex="1">
          <mxGeometry x="440" y="530" width="40" height="40" as="geometry" />
        </mxCell>
        <mxCell id="WsTCxCBbNMFjAXj_Hqe6-12" style="edgeStyle=none;rounded=0;orthogonalLoop=1;jettySize=auto;html=1;exitX=1;exitY=1;exitDx=0;exitDy=0;entryX=0.25;entryY=0;entryDx=0;entryDy=0;entryPerimeter=0;endArrow=baseDash;endFill=0;" parent="1" source="WsTCxCBbNMFjAXj_Hqe6-7" target="WsTCxCBbNMFjAXj_Hqe6-8" edge="1">
          <mxGeometry relative="1" as="geometry" />
        </mxCell>
        <mxCell id="WsTCxCBbNMFjAXj_Hqe6-7" value="d" style="ellipse;whiteSpace=wrap;html=1;aspect=fixed;" parent="1" vertex="1">
          <mxGeometry x="290" y="530" width="40" height="40" as="geometry" />
        </mxCell>
        <mxCell id="WsTCxCBbNMFjAXj_Hqe6-8" value="f" style="ellipse;whiteSpace=wrap;html=1;aspect=fixed;" parent="1" vertex="1">
          <mxGeometry x="360" y="620" width="40" height="40" as="geometry" />
        </mxCell>
        <mxCell id="9P4-RmKASeGlcGMQjBVW-1" value="" style="endArrow=none;html=1;rounded=0;" edge="1" parent="1">
          <mxGeometry width="50" height="50" relative="1" as="geometry">
            <mxPoint x="520" y="720" as="sourcePoint" />
            <mxPoint x="520" y="320" as="targetPoint" />
          </mxGeometry>
        </mxCell>
        <mxCell id="9P4-RmKASeGlcGMQjBVW-7" style="edgeStyle=none;rounded=0;orthogonalLoop=1;jettySize=auto;html=1;exitX=0;exitY=1;exitDx=0;exitDy=0;entryX=0.897;entryY=0.083;entryDx=0;entryDy=0;endArrow=baseDash;endFill=0;entryPerimeter=0;" edge="1" source="9P4-RmKASeGlcGMQjBVW-9" target="9P4-RmKASeGlcGMQjBVW-14" parent="1">
          <mxGeometry relative="1" as="geometry" />
        </mxCell>
        <mxCell id="9P4-RmKASeGlcGMQjBVW-8" style="edgeStyle=none;rounded=0;orthogonalLoop=1;jettySize=auto;html=1;exitX=1;exitY=1;exitDx=0;exitDy=0;" edge="1" source="9P4-RmKASeGlcGMQjBVW-9" target="9P4-RmKASeGlcGMQjBVW-12" parent="1">
          <mxGeometry relative="1" as="geometry" />
        </mxCell>
        <mxCell id="9P4-RmKASeGlcGMQjBVW-9" value="a" style="ellipse;whiteSpace=wrap;html=1;aspect=fixed;" vertex="1" parent="1">
          <mxGeometry x="640" y="350" width="40" height="40" as="geometry" />
        </mxCell>
        <mxCell id="9P4-RmKASeGlcGMQjBVW-10" style="edgeStyle=none;rounded=0;orthogonalLoop=1;jettySize=auto;html=1;exitX=0.5;exitY=1;exitDx=0;exitDy=0;entryX=0.5;entryY=0;entryDx=0;entryDy=0;" edge="1" source="9P4-RmKASeGlcGMQjBVW-12" target="9P4-RmKASeGlcGMQjBVW-15" parent="1">
          <mxGeometry relative="1" as="geometry" />
        </mxCell>
        <mxCell id="9P4-RmKASeGlcGMQjBVW-11" style="edgeStyle=none;rounded=0;orthogonalLoop=1;jettySize=auto;html=1;exitX=0;exitY=1;exitDx=0;exitDy=0;entryX=0.945;entryY=0.26;entryDx=0;entryDy=0;entryPerimeter=0;" edge="1" source="9P4-RmKASeGlcGMQjBVW-12" target="9P4-RmKASeGlcGMQjBVW-17" parent="1">
          <mxGeometry relative="1" as="geometry" />
        </mxCell>
        <mxCell id="9P4-RmKASeGlcGMQjBVW-12" value="b" style="ellipse;whiteSpace=wrap;html=1;aspect=fixed;" vertex="1" parent="1">
          <mxGeometry x="710" y="430" width="40" height="40" as="geometry" />
        </mxCell>
        <mxCell id="9P4-RmKASeGlcGMQjBVW-13" style="edgeStyle=none;rounded=0;orthogonalLoop=1;jettySize=auto;html=1;exitX=0.5;exitY=1;exitDx=0;exitDy=0;entryX=0.5;entryY=0;entryDx=0;entryDy=0;" edge="1" source="9P4-RmKASeGlcGMQjBVW-14" target="9P4-RmKASeGlcGMQjBVW-17" parent="1">
          <mxGeometry relative="1" as="geometry" />
        </mxCell>
        <mxCell id="9P4-RmKASeGlcGMQjBVW-14" value="c" style="ellipse;whiteSpace=wrap;html=1;aspect=fixed;" vertex="1" parent="1">
          <mxGeometry x="560" y="430" width="40" height="40" as="geometry" />
        </mxCell>
        <mxCell id="9P4-RmKASeGlcGMQjBVW-15" value="e" style="ellipse;whiteSpace=wrap;html=1;aspect=fixed;" vertex="1" parent="1">
          <mxGeometry x="710" y="530" width="40" height="40" as="geometry" />
        </mxCell>
        <mxCell id="9P4-RmKASeGlcGMQjBVW-16" style="edgeStyle=none;rounded=0;orthogonalLoop=1;jettySize=auto;html=1;exitX=1;exitY=1;exitDx=0;exitDy=0;entryX=0.25;entryY=0;entryDx=0;entryDy=0;entryPerimeter=0;endArrow=baseDash;endFill=0;" edge="1" source="9P4-RmKASeGlcGMQjBVW-17" target="9P4-RmKASeGlcGMQjBVW-18" parent="1">
          <mxGeometry relative="1" as="geometry" />
        </mxCell>
        <mxCell id="9P4-RmKASeGlcGMQjBVW-17" value="d" style="ellipse;whiteSpace=wrap;html=1;aspect=fixed;" vertex="1" parent="1">
          <mxGeometry x="560" y="530" width="40" height="40" as="geometry" />
        </mxCell>
        <mxCell id="9P4-RmKASeGlcGMQjBVW-18" value="f" style="ellipse;whiteSpace=wrap;html=1;aspect=fixed;" vertex="1" parent="1">
          <mxGeometry x="630" y="620" width="40" height="40" as="geometry" />
        </mxCell>
        <mxCell id="9P4-RmKASeGlcGMQjBVW-19" style="edgeStyle=none;rounded=0;orthogonalLoop=1;jettySize=auto;html=1;exitX=0;exitY=1;exitDx=0;exitDy=0;entryX=0.897;entryY=0.083;entryDx=0;entryDy=0;endArrow=baseDash;endFill=0;entryPerimeter=0;" edge="1" source="9P4-RmKASeGlcGMQjBVW-21" target="9P4-RmKASeGlcGMQjBVW-26" parent="1">
          <mxGeometry relative="1" as="geometry" />
        </mxCell>
        <mxCell id="9P4-RmKASeGlcGMQjBVW-20" style="edgeStyle=none;rounded=0;orthogonalLoop=1;jettySize=auto;html=1;exitX=1;exitY=1;exitDx=0;exitDy=0;" edge="1" source="9P4-RmKASeGlcGMQjBVW-21" target="9P4-RmKASeGlcGMQjBVW-24" parent="1">
          <mxGeometry relative="1" as="geometry" />
        </mxCell>
        <mxCell id="9P4-RmKASeGlcGMQjBVW-21" value="a" style="ellipse;whiteSpace=wrap;html=1;aspect=fixed;" vertex="1" parent="1">
          <mxGeometry x="100" y="350" width="40" height="40" as="geometry" />
        </mxCell>
        <mxCell id="9P4-RmKASeGlcGMQjBVW-22" style="edgeStyle=none;rounded=0;orthogonalLoop=1;jettySize=auto;html=1;exitX=0.5;exitY=1;exitDx=0;exitDy=0;entryX=0.5;entryY=0;entryDx=0;entryDy=0;" edge="1" source="9P4-RmKASeGlcGMQjBVW-24" target="9P4-RmKASeGlcGMQjBVW-27" parent="1">
          <mxGeometry relative="1" as="geometry" />
        </mxCell>
        <mxCell id="9P4-RmKASeGlcGMQjBVW-23" style="edgeStyle=none;rounded=0;orthogonalLoop=1;jettySize=auto;html=1;exitX=0;exitY=1;exitDx=0;exitDy=0;entryX=0.945;entryY=0.26;entryDx=0;entryDy=0;entryPerimeter=0;" edge="1" source="9P4-RmKASeGlcGMQjBVW-24" target="9P4-RmKASeGlcGMQjBVW-29" parent="1">
          <mxGeometry relative="1" as="geometry" />
        </mxCell>
        <mxCell id="9P4-RmKASeGlcGMQjBVW-24" value="b" style="ellipse;whiteSpace=wrap;html=1;aspect=fixed;" vertex="1" parent="1">
          <mxGeometry x="170" y="430" width="40" height="40" as="geometry" />
        </mxCell>
        <mxCell id="9P4-RmKASeGlcGMQjBVW-25" style="edgeStyle=none;rounded=0;orthogonalLoop=1;jettySize=auto;html=1;exitX=0.5;exitY=1;exitDx=0;exitDy=0;entryX=0.5;entryY=0;entryDx=0;entryDy=0;" edge="1" source="9P4-RmKASeGlcGMQjBVW-26" target="9P4-RmKASeGlcGMQjBVW-29" parent="1">
          <mxGeometry relative="1" as="geometry" />
        </mxCell>
        <mxCell id="9P4-RmKASeGlcGMQjBVW-26" value="c" style="ellipse;whiteSpace=wrap;html=1;aspect=fixed;" vertex="1" parent="1">
          <mxGeometry x="20" y="430" width="40" height="40" as="geometry" />
        </mxCell>
        <mxCell id="9P4-RmKASeGlcGMQjBVW-27" value="e" style="ellipse;whiteSpace=wrap;html=1;aspect=fixed;" vertex="1" parent="1">
          <mxGeometry x="170" y="530" width="40" height="40" as="geometry" />
        </mxCell>
        <mxCell id="9P4-RmKASeGlcGMQjBVW-28" style="edgeStyle=none;rounded=0;orthogonalLoop=1;jettySize=auto;html=1;exitX=1;exitY=1;exitDx=0;exitDy=0;entryX=0.25;entryY=0;entryDx=0;entryDy=0;entryPerimeter=0;endArrow=baseDash;endFill=0;" edge="1" source="9P4-RmKASeGlcGMQjBVW-29" target="9P4-RmKASeGlcGMQjBVW-30" parent="1">
          <mxGeometry relative="1" as="geometry" />
        </mxCell>
        <mxCell id="9P4-RmKASeGlcGMQjBVW-29" value="d" style="ellipse;whiteSpace=wrap;html=1;aspect=fixed;" vertex="1" parent="1">
          <mxGeometry x="20" y="530" width="40" height="40" as="geometry" />
        </mxCell>
        <mxCell id="9P4-RmKASeGlcGMQjBVW-30" value="f" style="ellipse;whiteSpace=wrap;html=1;aspect=fixed;" vertex="1" parent="1">
          <mxGeometry x="90" y="620" width="40" height="40" as="geometry" />
        </mxCell>
        <mxCell id="9P4-RmKASeGlcGMQjBVW-31" value="" style="endArrow=none;html=1;rounded=0;" edge="1" parent="1">
          <mxGeometry width="50" height="50" relative="1" as="geometry">
            <mxPoint x="250" y="720" as="sourcePoint" />
            <mxPoint x="250" y="320" as="targetPoint" />
          </mxGeometry>
        </mxCell>
        <mxCell id="9P4-RmKASeGlcGMQjBVW-32" style="edgeStyle=none;rounded=0;orthogonalLoop=1;jettySize=auto;html=1;exitX=0;exitY=1;exitDx=0;exitDy=0;entryX=0.897;entryY=0.083;entryDx=0;entryDy=0;endArrow=baseDash;endFill=0;entryPerimeter=0;" edge="1" source="9P4-RmKASeGlcGMQjBVW-34" target="9P4-RmKASeGlcGMQjBVW-39" parent="1">
          <mxGeometry relative="1" as="geometry" />
        </mxCell>
        <mxCell id="9P4-RmKASeGlcGMQjBVW-33" style="edgeStyle=none;rounded=0;orthogonalLoop=1;jettySize=auto;html=1;exitX=1;exitY=1;exitDx=0;exitDy=0;" edge="1" source="9P4-RmKASeGlcGMQjBVW-34" target="9P4-RmKASeGlcGMQjBVW-37" parent="1">
          <mxGeometry relative="1" as="geometry" />
        </mxCell>
        <mxCell id="9P4-RmKASeGlcGMQjBVW-34" value="a" style="ellipse;whiteSpace=wrap;html=1;aspect=fixed;" vertex="1" parent="1">
          <mxGeometry x="-160" y="350" width="40" height="40" as="geometry" />
        </mxCell>
        <mxCell id="9P4-RmKASeGlcGMQjBVW-35" style="edgeStyle=none;rounded=0;orthogonalLoop=1;jettySize=auto;html=1;exitX=0.5;exitY=1;exitDx=0;exitDy=0;entryX=0.5;entryY=0;entryDx=0;entryDy=0;" edge="1" source="9P4-RmKASeGlcGMQjBVW-37" target="9P4-RmKASeGlcGMQjBVW-40" parent="1">
          <mxGeometry relative="1" as="geometry" />
        </mxCell>
        <mxCell id="9P4-RmKASeGlcGMQjBVW-36" style="edgeStyle=none;rounded=0;orthogonalLoop=1;jettySize=auto;html=1;exitX=0;exitY=1;exitDx=0;exitDy=0;entryX=0.945;entryY=0.26;entryDx=0;entryDy=0;entryPerimeter=0;" edge="1" source="9P4-RmKASeGlcGMQjBVW-37" target="9P4-RmKASeGlcGMQjBVW-42" parent="1">
          <mxGeometry relative="1" as="geometry" />
        </mxCell>
        <mxCell id="9P4-RmKASeGlcGMQjBVW-37" value="b" style="ellipse;whiteSpace=wrap;html=1;aspect=fixed;" vertex="1" parent="1">
          <mxGeometry x="-90" y="430" width="40" height="40" as="geometry" />
        </mxCell>
        <mxCell id="9P4-RmKASeGlcGMQjBVW-38" style="edgeStyle=none;rounded=0;orthogonalLoop=1;jettySize=auto;html=1;exitX=0.5;exitY=1;exitDx=0;exitDy=0;entryX=0.5;entryY=0;entryDx=0;entryDy=0;" edge="1" source="9P4-RmKASeGlcGMQjBVW-39" target="9P4-RmKASeGlcGMQjBVW-42" parent="1">
          <mxGeometry relative="1" as="geometry" />
        </mxCell>
        <mxCell id="9P4-RmKASeGlcGMQjBVW-39" value="c" style="ellipse;whiteSpace=wrap;html=1;aspect=fixed;" vertex="1" parent="1">
          <mxGeometry x="-240" y="430" width="40" height="40" as="geometry" />
        </mxCell>
        <mxCell id="9P4-RmKASeGlcGMQjBVW-46" style="edgeStyle=orthogonalEdgeStyle;curved=1;rounded=0;orthogonalLoop=1;jettySize=auto;html=1;exitX=1;exitY=0.5;exitDx=0;exitDy=0;entryX=0;entryY=0.5;entryDx=0;entryDy=0;dashed=1;" edge="1" parent="1" source="9P4-RmKASeGlcGMQjBVW-40" target="9P4-RmKASeGlcGMQjBVW-26">
          <mxGeometry relative="1" as="geometry">
            <Array as="points">
              <mxPoint y="550" />
              <mxPoint y="450" />
            </Array>
          </mxGeometry>
        </mxCell>
        <mxCell id="9P4-RmKASeGlcGMQjBVW-40" value="e" style="ellipse;whiteSpace=wrap;html=1;aspect=fixed;" vertex="1" parent="1">
          <mxGeometry x="-90" y="530" width="40" height="40" as="geometry" />
        </mxCell>
        <mxCell id="9P4-RmKASeGlcGMQjBVW-41" style="edgeStyle=none;rounded=0;orthogonalLoop=1;jettySize=auto;html=1;exitX=1;exitY=1;exitDx=0;exitDy=0;entryX=0.25;entryY=0;entryDx=0;entryDy=0;entryPerimeter=0;endArrow=baseDash;endFill=0;" edge="1" source="9P4-RmKASeGlcGMQjBVW-42" target="9P4-RmKASeGlcGMQjBVW-43" parent="1">
          <mxGeometry relative="1" as="geometry" />
        </mxCell>
        <mxCell id="9P4-RmKASeGlcGMQjBVW-42" value="d" style="ellipse;whiteSpace=wrap;html=1;aspect=fixed;" vertex="1" parent="1">
          <mxGeometry x="-240" y="530" width="40" height="40" as="geometry" />
        </mxCell>
        <mxCell id="9P4-RmKASeGlcGMQjBVW-47" style="edgeStyle=orthogonalEdgeStyle;curved=1;rounded=0;orthogonalLoop=1;jettySize=auto;html=1;exitX=1;exitY=0.5;exitDx=0;exitDy=0;entryX=0.5;entryY=1;entryDx=0;entryDy=0;dashed=1;" edge="1" parent="1" source="9P4-RmKASeGlcGMQjBVW-43" target="WsTCxCBbNMFjAXj_Hqe6-7">
          <mxGeometry relative="1" as="geometry">
            <Array as="points">
              <mxPoint x="-130" y="690" />
              <mxPoint x="310" y="690" />
            </Array>
          </mxGeometry>
        </mxCell>
        <mxCell id="9P4-RmKASeGlcGMQjBVW-43" value="f" style="ellipse;whiteSpace=wrap;html=1;aspect=fixed;" vertex="1" parent="1">
          <mxGeometry x="-170" y="620" width="40" height="40" as="geometry" />
        </mxCell>
        <mxCell id="9P4-RmKASeGlcGMQjBVW-44" value="" style="endArrow=none;html=1;rounded=0;" edge="1" parent="1">
          <mxGeometry width="50" height="50" relative="1" as="geometry">
            <mxPoint x="-10" y="720" as="sourcePoint" />
            <mxPoint x="-10" y="320" as="targetPoint" />
          </mxGeometry>
        </mxCell>
      </root>
    </mxGraphModel>
  </diagram>
</mxfile>
